<svg id="favorit_down_menu_notslected" xmlns="http://www.w3.org/2000/svg" width="27.23" height="25.057" viewBox="0 0 27.23 25.057">
  <g id="HEART_DOWN_MENU__UNSLECTED" data-name="HEART_DOWN_MENU _UNSLECTED">
    <path id="Path_245" data-name="Path 245" d="M37.4-456.829c-3.883.524-6.736,3.9-7.127,8.426a8.864,8.864,0,0,0,2.215,6.754c.849.9,9.354,9.1,9.649,9.3a2.624,2.624,0,0,0,1.583.505,2.7,2.7,0,0,0,1.824-.474c.2-.137,2-1.84,4-3.786s4.147-4.029,4.767-4.628a9.012,9.012,0,0,0,2.239-2.825,8.677,8.677,0,0,0,.77-2.226,12.145,12.145,0,0,0,0-3.736c-.795-4.1-3.509-6.891-7.133-7.328a6.584,6.584,0,0,0-5.755,2.333l-.566.586-.608-.63A6.614,6.614,0,0,0,37.4-456.829Z" transform="translate(-30.239 456.891)" fill="none"/>
  </g>
  <g id="down_menu_fav_slected" transform="translate(0 0)">
    <path id="Path_245-2" data-name="Path 245" d="M37.4-456.829c-3.883.524-6.736,3.9-7.127,8.426a8.864,8.864,0,0,0,2.215,6.754c.849.9,9.354,9.1,9.649,9.3a2.624,2.624,0,0,0,1.583.505,2.7,2.7,0,0,0,1.824-.474c.2-.137,2-1.84,4-3.786s4.147-4.029,4.767-4.628a9.012,9.012,0,0,0,2.239-2.825,8.677,8.677,0,0,0,.77-2.226,12.145,12.145,0,0,0,0-3.736c-.795-4.1-3.509-6.891-7.133-7.328a6.584,6.584,0,0,0-5.755,2.333l-.566.586-.608-.63A6.614,6.614,0,0,0,37.4-456.829Z" transform="translate(-30.239 456.891)"/>
  </g>
</svg>
