<svg xmlns="http://www.w3.org/2000/svg" width="29.285" height="28.485" viewBox="0 0 29.285 28.485">
  <g id="home_cart_nonslected" transform="translate(0.77 0.749)">
    <g id="CART_UNSLECTED_DOWN_MENU">
      <g id="HOME_BUCKET_UPSLECTED" data-name="HOME_BUCKET UPSLECTED">
        <path id="Path_241" data-name="Path 241" d="M.93-490.863a1.146,1.146,0,0,0-.748.61,1.09,1.09,0,0,0,.2,1.336c.335.33.5.363,1.88.363,1.3,0,1.468.033,1.672.324.055.077,1.006,2.865,2.117,6.191,2.348,7.06,2.177,6.3,1.787,7.846a3.345,3.345,0,0,0,.2,2.931,3.235,3.235,0,0,0,1.908,1.4c.2.044,2.524.055,7.72.049l7.428-.017.214-.148a1.668,1.668,0,0,0,.352-.357.882.882,0,0,0,.137-.621.86.86,0,0,0-.148-.638,1.668,1.668,0,0,0-.357-.352l-.2-.137-7.368-.028c-8.017-.027-7.505-.005-7.7-.335-.121-.2-.11-.346.055-1,.159-.632.225-.77.478-.918.17-.1.33-.11,6.631-.11,4.949,0,6.5-.017,6.681-.066a1.253,1.253,0,0,0,.451-.3c.225-.22.247-.291,1.858-5.114.9-2.689,1.628-4.96,1.628-5.048a1.258,1.258,0,0,0-.682-1.083c-.214-.1-.6-.1-9.82-.1-6.34,0-9.661-.022-9.8-.055-.39-.11-.478-.28-1.122-2.227-.533-1.6-.621-1.825-.808-2.04-.341-.39-.462-.407-2.617-.4C1.941-490.907,1.028-490.885.93-490.863Z" transform="translate(-0.041 490.913)" fill="none" stroke="#f5f1e4" stroke-width="1.5"/>
        <path id="Path_242" data-name="Path 242" d="M129.748-84.693a2.352,2.352,0,0,0-1.578,2.04,2.361,2.361,0,0,0,2.507,2.507,2.351,2.351,0,0,0,2.062-1.661,2.46,2.46,0,0,0-.115-1.633,2.3,2.3,0,0,0-1.105-1.127,1.616,1.616,0,0,0-.94-.22A1.857,1.857,0,0,0,129.748-84.693Z" transform="translate(-121.118 107.123)" fill="none" stroke="#f5f1e4" stroke-width="1.5"/>
        <path id="Path_243" data-name="Path 243" d="M385.748-84.693a2.352,2.352,0,0,0-1.578,2.04,2.361,2.361,0,0,0,2.507,2.507,2.351,2.351,0,0,0,2.062-1.661,2.461,2.461,0,0,0-.115-1.633,2.3,2.3,0,0,0-1.105-1.127,1.615,1.615,0,0,0-.94-.22A1.857,1.857,0,0,0,385.748-84.693Z" transform="translate(-363.042 107.123)" fill="none" stroke="#f5f1e4" stroke-width="1.5"/>
      </g>
    </g>
  </g>
</svg>
