<svg xmlns="http://www.w3.org/2000/svg" width="30.384" height="28.492" viewBox="0 0 30.384 28.492">
  <g id="home_notslected" transform="translate(0.76 0.754)">
    <g id="HOEM_DOWN_MENU_UNSLECTED">
      <path id="Path_244" data-name="Path 244" d="M29.83-479.761a3.717,3.717,0,0,0-1.753.97c-.283.259-2.988,2.813-6.006,5.674-5.1,4.831-5.506,5.229-5.68,5.584a2.157,2.157,0,0,0,1.12,2.946,3.109,3.109,0,0,0,.886.139l.651.03.012,5.47c.018,5.415.018,5.47.145,5.632a1.64,1.64,0,0,0,.289.289c.163.12.241.126,3.229.145l3.066.018.018-3.783c.024-4.072.012-3.885.349-4.789a5.055,5.055,0,0,1,1.1-1.614,4.807,4.807,0,0,1,6.765.042,5.147,5.147,0,0,1,1.054,1.572c.337.9.325.717.349,4.789l.018,3.783,3.066-.018c2.988-.018,3.066-.024,3.229-.145a1.641,1.641,0,0,0,.289-.289c.126-.163.126-.217.145-5.644l.012-5.476h.506a2.155,2.155,0,0,0,2.169-1.265,1.6,1.6,0,0,0,.187-.9,1.553,1.553,0,0,0-.2-.916c-.187-.38-.488-.675-5.717-5.632-3.036-2.873-5.741-5.427-6.006-5.668A3.585,3.585,0,0,0,29.83-479.761Z" transform="translate(-16.166 479.848)" fill="none" stroke="#f5f1e4" stroke-width="1.5"/>
    </g>
  </g>
</svg>
