<svg id="LOCATION_SLECTED" xmlns="http://www.w3.org/2000/svg" width="32" height="32" viewBox="0 0 32 32">
  <circle id="Ellipse_23" data-name="Ellipse 23" cx="16" cy="16" r="16" fill="#baa378"/>
  <g id="aim" transform="translate(7.271 327.351)">
    <path id="Path_240" data-name="Path 240" d="M8.622-511.649a.556.556,0,0,0-.276.291,3.116,3.116,0,0,0-.036.578c0,.555.033.5-.346.539a7.308,7.308,0,0,0-1.32.294,7.015,7.015,0,0,0-4.11,3.558,7.051,7.051,0,0,0-.658,2.171c-.036.395.026.353-.589.366-.592.01-.632.023-.79.235a.586.586,0,0,0,0,.561c.158.212.2.225.79.235.615.013.553-.029.589.366a7.051,7.051,0,0,0,.658,2.171,7.034,7.034,0,0,0,4.124,3.565,7.235,7.235,0,0,0,1.31.287c.369.036.336-.02.349.588.01.581.023.623.237.78a.6.6,0,0,0,.566,0c.214-.157.227-.2.237-.774a1.621,1.621,0,0,1,.049-.552.441.441,0,0,1,.161-.026,7.425,7.425,0,0,0,1.451-.307,7.077,7.077,0,0,0,3.827-3.023,6.989,6.989,0,0,0,.951-2.729c.036-.366-.02-.333.592-.346.586-.01.629-.023.787-.235a.586.586,0,0,0,0-.561c-.158-.212-.2-.225-.787-.235-.612-.013-.556.02-.592-.346a7.155,7.155,0,0,0-.313-1.361,7.018,7.018,0,0,0-3.574-4.031,7.138,7.138,0,0,0-2.2-.65c-.378-.039-.339.026-.352-.584-.01-.584-.023-.627-.23-.78A.615.615,0,0,0,8.622-511.649Zm-.24,3.176a.543.543,0,0,0,.731.176c.188-.117.25-.271.25-.633v-.3l.237.026a6.087,6.087,0,0,1,2.758,1.1,5.942,5.942,0,0,1,2.383,3.937l.043.313h-.316a.747.747,0,0,0-.444.075.512.512,0,0,0,.016.9.847.847,0,0,0,.434.065h.309l-.043.313a5.973,5.973,0,0,1-5.062,5.021l-.316.042v-.307a.829.829,0,0,0-.066-.431.52.52,0,0,0-.912-.016.731.731,0,0,0-.076.441v.313l-.2-.029a6.014,6.014,0,0,1-3.149-1.381,6.032,6.032,0,0,1-2.037-3.731l-.026-.235H3.2a.847.847,0,0,0,.434-.065.514.514,0,0,0,0-.914.848.848,0,0,0-.434-.065H2.892l.026-.235a6.032,6.032,0,0,1,2.037-3.731A6.068,6.068,0,0,1,7.7-509.142c.2-.039.415-.075.477-.078l.115-.01.016.326A1.187,1.187,0,0,0,8.382-508.472Z" transform="translate(0 192)"/>
  </g>
</svg>
